<svg id="Слой_1" data-name="Слой 1" xmlns="http://www.w3.org/2000/svg" viewBox="0 0 1280 343.11"><defs><style>.cls-1{fill:#575757;}.cls-2{fill:#f4aa07;}.cls-3{fill:#f9ca64;}.cls-4{fill:#888;}.cls-5{fill:#f4a801;}</style></defs><title>CB logo</title><path class="cls-1" d="M1280,234.72c-1.34-.05-.81,1-.89,1.62-1,7.4-1.9,14.83-4.52,21.87a52.48,52.48,0,0,1-11.07,17.06,60.52,60.52,0,0,1-37.07,19.37c-18.43,2.55-35-2.33-49.24-14.38a62.12,62.12,0,0,1-3.93-91.23c13-12.84,28.68-19.53,47-18.51,22,1.21,39,11.49,51.07,30,.79,1.21.71,2-.67,2.72q-10.2,5.12-20.35,10.33c-1.2.62-1.77.36-2.56-.75-8.57-12.2-20.37-18-35.13-15.88-15.07,2.16-25.43,11-29.73,25.66A35.9,35.9,0,0,0,1209.28,268a36.94,36.94,0,0,0,39-15.45c.26-.39.79-.76.4-1.29s-1.05-.31-1.59-.31h-26.9c-2.8,0-2.8,0-2.8-2.84,0-4.41,0-8.82,0-13.23,0-1.62.49-2.28,2.21-2.27q28.93.06,57.86,0c.93,0,1.63.89,2.57.41Z"/><path class="cls-2" d="M208.85,2c-.42,1,0,2.09,0,3.13q0,59.42,0,118.83c0,2.05-.55,2.75-2.63,2.64-3.19-.16-6.4-.11-9.6,0-1.53,0-2.06-.51-1.93-2,.08-.85,0-1.71,0-2.56V5.36c0-1.12,0-2.24,0-3.36Z"/><path class="cls-2" d="M263.94,2V7.27q0,58.47,0,117c0,1.74-.43,2.45-2.26,2.37-3.06-.12-6.12-.06-9.18,0-1.45,0-2.14-.51-2-2,.05-.71,0-1.42,0-2.13q0-58.49,0-117A9.36,9.36,0,0,1,251.13,2Z"/><path class="cls-2" d="M234.9,2a3.76,3.76,0,0,1,.88,2.72q0,59.87,0,119.73c0,1.57-.46,2.18-2.06,2.14-3.06-.08-6.12-.07-9.18,0-1.28,0-1.86-.45-1.8-1.73,0-.5,0-1,0-1.49q0-58.49,0-117c0-1.47.11-2.94.17-4.41Z"/><path class="cls-3" d="M32.81,28c1.86-3.06,4.92-4.85,7.64-6.93A92.94,92.94,0,0,1,72.93,4.83a73.57,73.57,0,0,1,11.42-2.3c.42,0,.86-.06,1.07-.53h90.12c-.37,3.83-.09,7.67-.17,11.5-.06,3.38-.12,3.45-3.47,3.45-24.84,0-49.68-.05-74.51,0A78.3,78.3,0,0,0,49.49,32.7,85.82,85.82,0,0,0,20.3,71.54a92.56,92.56,0,0,0-6,30.09,91.71,91.71,0,0,0,9.44,44.9c8.92,17.88,22.45,31.14,40.84,39.14A70.5,70.5,0,0,0,91,191.74c26.83.69,53.65.12,80.48.3,3.22,0,3.22,0,3.22,3.13,0,3.28-.06,6.55,0,9.82,0,1.59-.39,2.31-2.15,2.31-27.18-.05-54.37.2-81.55-.18a83.07,83.07,0,0,1-34.13-8.3,95.49,95.49,0,0,1-27.74-19.54,99.68,99.68,0,0,1-20.88-31.4A112.75,112.75,0,0,1,.51,119.44a1,1,0,0,0-.51-.87V92.1C.89,90.16,1,88,1.31,86A107.88,107.88,0,0,1,11,56.84,106.13,106.13,0,0,1,28.53,31.61,10,10,0,0,1,32,28.82c.12.67-.34,1.05-.75,1.44-2.15,2.07-4.15,4.29-6.1,6.55A97,97,0,0,0,11.64,57.44,106.19,106.19,0,0,0,3,82.46,140.94,140.94,0,0,0,.45,101.38c-.33,4.58.23,9.18.61,13.79a115.61,115.61,0,0,0,3.45,19.2A98.57,98.57,0,0,0,44.75,191a92.44,92.44,0,0,0,22.13,10.8c11.38,3.78,23.18,4.64,35.07,4.68,8.11,0,16.23,0,24.34,0,15,0,30,0,45.06,0,2,0,2.66-.57,2.53-2.54-.15-2.27,0-4.55,0-6.83,0-4,0-4-3.9-4q-36.19,0-72.38,0a90.7,90.7,0,0,1-18.17-1.84,76.48,76.48,0,0,1-23.18-8.82A83.62,83.62,0,0,1,28.9,157a87.26,87.26,0,0,1-9.51-18,91.31,91.31,0,0,1-5.08-19.47,102,102,0,0,1-1-18.78,88.24,88.24,0,0,1,2-16,91.28,91.28,0,0,1,8.1-22.51,87.24,87.24,0,0,1,40-39c11.09-5.23,22.93-7.42,35.09-7.51,23.7-.19,47.4-.06,71.1-.05a15.12,15.12,0,0,1,2.13.09c2.39.34,2.51.26,2.52-2.22,0-2.85-.14-5.71,0-8.54.14-2.13-.44-2.76-2.67-2.75-23.42.09-46.84,0-70.26.06A106.63,106.63,0,0,0,69.12,7,93.92,93.92,0,0,0,39.3,23C37.16,24.66,35.36,26.81,32.81,28Z"/><path class="cls-1" d="M491.12,233.05c0-19.21,0-38.42,0-57.64,0-2,.57-2.66,2.64-2.66,19.51.08,39,0,58.51.09A45.84,45.84,0,0,1,571.9,177c9.21,4.39,13.55,12,14.26,21.88.37,5.11.24,10.26-1.93,15.09A27.26,27.26,0,0,1,573,226.18c-.57.35-1.52.46-1.49,1.34s1,.85,1.63,1.07A28.46,28.46,0,0,1,592,254.86c.14,5.92.07,11.8-2.45,17.37-3.76,8.31-10.17,13.73-18.47,17.08a55.39,55.39,0,0,1-21,3.82c-18.37-.07-36.73,0-55.09,0-4.29,0-3.81.34-3.8-3.69Q491.17,261.23,491.12,233.05Zm43.13,39.38c3.13,0,6.27,0,9.4,0a46.28,46.28,0,0,0,10-.9c5.87-1.39,10.09-4.56,11.41-10.71a22.31,22.31,0,0,0-.22-9.72,13.32,13.32,0,0,0-8-9.56c-3.94-1.8-8.14-1.93-12.32-2-8.18-.12-16.37,0-24.56-.08-1.84,0-2.29.65-2.27,2.37.06,9.47.07,18.93,0,28.4,0,1.87.66,2.27,2.36,2.24C524.71,272.37,529.48,272.44,534.25,272.43Zm-16.62-65v9c0,5.06,0,5.11,5.08,5.05,8.53-.1,17.07.41,25.59-.46a14.67,14.67,0,0,0,8.58-3.88c3.35-3.06,3.62-7.06,3.51-11.2a11.26,11.26,0,0,0-6.26-10.16c-4.24-2.36-9-2.15-13.53-2.32-7-.26-13.94,0-20.92-.1-1.63,0-2.1.62-2.08,2.15C517.67,199.47,517.63,203.46,517.63,207.44Z"/><path class="cls-2" d="M250.68,152.63c-18.36,0-36.72,0-55.08.05-2.2,0-2.88-.64-2.76-2.78.16-2.91.13-5.84,0-8.75-.09-1.91.63-2.41,2.47-2.41q39.62.07,79.22,0c8.18,0,16.36.05,24.55,0,17.52-.14,34,3.81,49.21,12.56a97.76,97.76,0,0,1,30.27,27.16,101.85,101.85,0,0,1,13.23,24c6.22,16.28,8.68,33.06,6.29,50.44-2.84,20.79-11.81,38.69-25.54,54.37a105,105,0,0,1-41.72,29.18,96.79,96.79,0,0,1-43.72,6.24,110.18,110.18,0,0,1-42.16-12,96.24,96.24,0,0,1-27.52-21.31A92,92,0,0,1,197.54,274a99.91,99.91,0,0,1-3.81-29.28c0-8.11.05-16.22,0-24.33,0-2,.43-2.84,2.62-2.71a87.83,87.83,0,0,0,9.6,0c2-.09,2.54.7,2.52,2.61-.09,7.54,0,15.09-.05,22.63-.08,10.08.76,20,4.06,29.64,6.7,19.46,19.18,34.15,36.9,44.46,15.22,8.85,31.76,12.65,49.25,12.15a82.82,82.82,0,0,0,44.57-14.65,92.79,92.79,0,0,0,36.13-46,80.53,80.53,0,0,0,5-26.47,88,88,0,0,0-2.53-22.61,91.07,91.07,0,0,0-20.09-38.81A81.32,81.32,0,0,0,328,157.37a72.6,72.6,0,0,0-24.59-4.69c-17.58-.06-35.16,0-52.74,0Z"/><path class="cls-1" d="M1038.23,232.8c0-19.35,0-38.71,0-58.06,0-1.85.47-2.45,2.39-2.43q13,.15,26,0a4,4,0,0,1,3.68,1.93q24.93,35,49.94,70c.36.51.67,1.35,1.37,1.17.92-.24.53-1.2.53-1.84q0-34.27,0-68.53c0-2.68,0-2.68,2.75-2.68,6,0,12,0,17.93,0,1.61,0,2.22.39,2.22,2.16q-.07,58.28,0,116.55c0,1.87-.68,2.28-2.37,2.26-6-.07-12.1-.09-18.14,0a4,4,0,0,1-3.73-1.86q-16-22.51-32.16-44.94l-27.7-38.69c-.36-.5-.67-1.29-1.41-1s-.32,1-.32,1.52q0,41.1,0,82.19c0,2.79,0,2.78-2.83,2.78-5.27,0-10.54-.08-15.8.05-1.92,0-2.41-.59-2.4-2.44C1038.25,271.51,1038.23,252.16,1038.23,232.8Z"/><path class="cls-4" d="M920.31,86c-1.33-32.19,27.4-62.75,62.58-62.64,34.4.11,63.1,28.54,63,63.45-.11,33.84-29.52,63.79-65.92,62.33C949.18,147.93,918.71,120,920.31,86Zm25.25.27c-.58,20,16.81,37,36.26,37.48,21,.51,38.88-17,38.61-37.86-.25-20.07-17.09-36.79-37.28-37.09C962.38,48.5,944.93,66.75,945.56,86.29Z"/><path class="cls-1" d="M610,233.11c0-19.21,0-38.42,0-57.63,0-2,.51-2.73,2.62-2.73,18.43.08,36.87-.15,55.29.12,12.27.17,23,4.4,30.88,14.28,4.25,5.32,6.3,11.59,7.15,18.23a42.88,42.88,0,0,1-3.11,23.16,33.43,33.43,0,0,1-21.95,19.37c-2.13.63-1.81,1.25-.82,2.66q14.21,20.25,28.34,40.56c.38.56,1.23,1,.74,1.81-.37.6-1.18.32-1.79.32-8.54,0-17.08,0-25.62,0a3.6,3.6,0,0,1-3.36-1.72c-9-13-18.21-26-27.22-39-1.33-1.94-2.73-2.77-5.06-2.56a47.27,47.27,0,0,1-7,0c-1.87-.12-2.44.5-2.43,2.39.08,12.74,0,25.47.09,38.21,0,2-.48,2.74-2.61,2.71-7.18-.12-14.37-.11-21.56,0-2,0-2.55-.59-2.54-2.57C610,271.53,610,252.32,610,233.11Zm26.52-21.78c0,4.7,0,9.39,0,14.09s-.51,4.08,4.12,4c7.61-.08,15.23.42,22.82-.28,5.07-.46,9.93-1.77,13.1-6.16,4.7-6.5,4.58-13.66,1.62-20.67-2.57-6.05-8.15-8-14.27-8.48-8.44-.64-16.91-.43-25.37-.51-1.68,0-2,.74-2,2.2C636.51,200.81,636.49,206.07,636.5,211.33Z"/><path class="cls-4" d="M554,104.43a3.58,3.58,0,0,0-.5,2.61c0,13.09-.05,26.18,0,39.27,0,2-.52,2.7-2.63,2.66-6.83-.13-13.66-.11-20.49,0-1.93,0-2.4-.63-2.4-2.46q.06-60.28,0-120.59c0-1.81.53-2.52,2.44-2.51,14.09.06,28.18-.15,42.27.08A44,44,0,0,1,590,107.63c-1.59.72-1.83,1.4-.79,2.86q12.75,18.14,25.41,36.33c.35.5,1.11.92.76,1.64s-1.27.45-1.93.45c-8.54,0-17.08,0-25.62.06a4.63,4.63,0,0,1-4.39-2.26c-7.06-10.24-14.2-20.42-21.32-30.62Zm-.51-36.83c0,5.55,0,11.1,0,16.65,0,1.47.42,2,1.94,2q8-.12,16,0a18,18,0,0,0,13.74-5.68c5.32-5.49,7-12.93,4.29-19.61a18.68,18.68,0,0,0-17.3-12c-5.55,0-11.1,0-16.65,0-1.63,0-2.06.56-2,2.11C553.49,56.5,553.44,62.05,553.44,67.6Z"/><path class="cls-1" d="M778.11,232.58c0-19.21,0-38.42,0-57.63,0-2,.46-2.65,2.58-2.65q41.42.12,82.83,0c2.21,0,2.77.59,2.72,2.74-.15,5.76-.1,11.53,0,17.29,0,1.73-.44,2.33-2.27,2.32-19-.07-38,0-57-.05-2.74,0-2.74,0-2.74,2.69,0,7.26,0,14.52,0,21.77,0,1.85.54,2.46,2.44,2.45,16.58-.07,33.16,0,49.74-.09,2,0,2.62.54,2.59,2.53-.11,6.33-.1,12.67,0,19,0,1.78-.57,2.31-2.34,2.3-16.65-.06-33.3,0-49.95-.08-1.83,0-2.51.44-2.48,2.37q.17,10.35,0,20.7c0,1.9.58,2.41,2.45,2.41,20.92-.07,41.84,0,62.76-.1,2.22,0,2.77.67,2.72,2.79-.14,5.62-.12,11.24,0,16.86,0,2-.45,2.71-2.61,2.71q-44.5-.11-89,0c-2,0-2.34-.72-2.33-2.48Q778.16,261.5,778.11,232.58Z"/><path class="cls-4" d="M732.14,86.21v-60c0-2.79,0-2.79,2.84-2.79,13.24,0,26.47,0,39.71,0,11.22,0,21.37,3.08,29.88,10.53,8,7,13.44,15.54,15,26.27,2.24,15.7-2.15,29.11-13.9,39.89a41.71,41.71,0,0,1-25.86,11.23c-6.69.49-13.37.17-20,.22-1.7,0-2.19.51-2.18,2.19.07,10.89,0,21.77.08,32.66,0,2-.52,2.58-2.53,2.55q-10.25-.18-20.49,0c-2,0-2.51-.65-2.51-2.57Q732.19,116.31,732.14,86.21Zm25.45-18.66c0,5.47.07,11,0,16.42,0,1.82.57,2.29,2.31,2.25,5.33-.1,10.67-.16,16,0,9,.27,16.85-7.34,18.42-14.58,2.46-11.37-6.14-22.59-17.8-22.73-5.62-.07-11.24,0-16.85,0-1.59,0-2.1.47-2.08,2.06C757.63,56.46,757.59,62,757.59,67.55Z"/><path class="cls-2" d="M247.48,177.84c-17.3,0-34.59,0-51.89,0-2.07,0-2.74-.57-2.63-2.63.16-3.12.08-6.26,0-9.39,0-1.37.47-2,1.87-1.89.42,0,.85,0,1.28,0q47.94,0,95.88,0a90.66,90.66,0,0,1,27,3.58,74.2,74.2,0,0,1,33.2,20.84,75,75,0,0,1,17.15,30.38c4,13.7,4.43,27.46.08,41.19-6.61,20.85-19.43,37-37.76,48.67-10.8,6.88-22.7,10.84-35.66,10.84a73.08,73.08,0,0,1-33.68-8.09C244,302,231,287.73,224.1,268.25a60,60,0,0,1-3.3-20.75c.08-9.11,0-18.22,0-27.33,0-1.81.48-2.55,2.42-2.47,3.26.15,6.55.13,9.82,0,1.83-.07,2.32.64,2.3,2.36-.06,8,.1,16,0,23.91-.3,14.74,3.83,28,13.38,39.27,10.89,12.89,24.65,20.57,41.61,22.15,17.21,1.6,31.42-5,43.81-16.26a73.23,73.23,0,0,0,20.08-30.26,58,58,0,0,0,1.36-34,61.57,61.57,0,0,0-18.14-31,59.25,59.25,0,0,0-31-15.08,87.58,87.58,0,0,0-14.46-.91Z"/><path class="cls-4" d="M475.45,149c-20.25.18-35.67-7.55-48.25-21.53a56.59,56.59,0,0,1-14.05-27.81c-2.6-14-1.55-27.86,4.88-40.91a59.25,59.25,0,0,1,9.07-13.37c8.12-9.09,17.69-16,29.54-19.32a63,63,0,0,1,32.2-.84A63.73,63.73,0,0,1,517,40c2.2,2,2.17,2,.12,4-4.83,4.83-9.69,9.63-14.46,14.51-1.11,1.13-1.81,1.09-3,.06-9.26-8.17-19.92-11.1-32.2-9.07-14.22,2.35-28.07,15.61-30.05,32-2.66,22,13.7,39.65,32.28,41.81,11.56,1.34,21.64-1.78,30.24-9.62.95-.86,1.58-.88,2.48,0,5.16,5.2,10.33,10.4,15.56,15.53,1.27,1.25.53,1.85-.39,2.71C506.87,142.18,490.66,149.67,475.45,149Z"/><path class="cls-1" d="M887.62,232.8c0-19.28,0-38.57,0-57.85,0-2,.51-2.65,2.61-2.65q41.53.12,83.06,0c2,0,2.56.55,2.53,2.51-.12,5.84-.1,11.67,0,17.51,0,1.73-.45,2.33-2.29,2.32-19-.07-38,0-57-.05-2.68,0-2.68,0-2.68,2.76,0,7.19.05,14.37,0,21.56,0,1.92.5,2.6,2.53,2.6,16.51-.08,33,0,49.54-.1,2.09,0,2.73.62,2.69,2.66q-.13,9.28,0,18.57c0,1.91-.51,2.62-2.53,2.61-16.52-.08-33,0-49.54-.09-2,0-2.71.43-2.7,2.58.09,14.3,0,28.6.1,42.91,0,2.07-.68,2.51-2.57,2.48-7-.09-14.1-.11-21.14,0-2,0-2.55-.5-2.54-2.49C887.65,271.37,887.62,252.09,887.62,232.8Z"/><path class="cls-2" d="M131.54,166.64h40.13c2.8,0,2.8,0,2.8,2.89,0,3.13-.05,6.27,0,9.4,0,1.66-.41,2.4-2.29,2.4-25.33-.06-50.67,0-76-.06-16.14,0-30.33-5.58-42.79-15.68a79.48,79.48,0,0,1-26.76-39.95,71.05,71.05,0,0,1,1.9-46.43A83.78,83.78,0,0,1,50.41,46.8c11.08-10.23,23.93-17,39-19a66.77,66.77,0,0,1,8.72-.46c24.7,0,49.39,0,74.08-.07,2.2,0,2.86.64,2.74,2.79-.18,3,0,6.11-.05,9.17,0,2.66-.12,2.78-2.77,2.78H104.28c-3.2,0-6.4,0-9.6.08-11.67.34-21.9,4.68-31,11.71A66.68,66.68,0,0,0,38.77,92.88a56.45,56.45,0,0,0,2.78,33.73c6.06,15.33,16.3,27.06,31.11,34.54a50.5,50.5,0,0,0,23.22,5.5C107.77,166.62,119.65,166.65,131.54,166.64Z"/><path class="cls-4" d="M663.69,120.7c0-7.54-.17-15.08.07-22.61a18.59,18.59,0,0,0-2.62-9.88c-9.21-16.81-18.32-33.67-27.47-50.51-2.24-4.12-4.44-8.25-6.8-12.3-1-1.66-.4-2,1.16-2,8.25,0,16.51,0,24.76,0a2.86,2.86,0,0,1,2.85,1.72c6,11.18,12.13,22.33,18.21,33.48.45.81.92,1.6,1.32,2.44.24.52.41,1.14,1.09,1.15s.81-.72,1.06-1.19q5.43-9.92,10.82-19.84,4.32-8,8.63-15.94a3,3,0,0,1,3-1.84c8.18.09,16.36,0,24.54,0,2.26,0,2.34.18,1.32,2.06Q712.33,49.91,699,74.32c-3.09,5.68-6.14,11.37-9.3,17a6.72,6.72,0,0,0-.81,3.45c0,17.22,0,34.43.05,51.65,0,1.94-.47,2.57-2.48,2.54q-10.25-.18-20.49,0c-1.94,0-2.38-.61-2.36-2.44C663.74,137.92,663.69,129.31,663.69,120.7Z"/><path class="cls-4" d="M886.24,99.15c0,15.8,0,31.59,0,47.39,0,1.87-.49,2.46-2.39,2.43q-10.24-.16-20.5,0c-2.1,0-2.82-.5-2.81-2.73q.1-47.28,0-94.57c0-2.8,0-2.79-2.79-2.79-8.68,0-17.36,0-26.05,0-1.77,0-2.34-.53-2.32-2.31q.13-10.47,0-20.92c0-1.82.62-2.28,2.35-2.28q41.53.06,83.06,0c1.91,0,2.62.47,2.58,2.51q-.19,10.24,0,20.5c0,2.06-.71,2.51-2.6,2.5-8.68-.08-17.36,0-26-.08-2.11,0-2.64.69-2.63,2.7C886.27,67.41,886.24,83.28,886.24,99.15Z"/><path class="cls-2" d="M245.61,200.49H195.44c-2.52,0-2.6-.16-2.54-2.66.06-2.91,0-5.83,0-8.74-.05-1.65.41-2.45,2.28-2.45,33.16.05,66.33,0,99.49.08,14.58.05,26.2,6.71,35.78,17.27a59.59,59.59,0,0,1,13,22.56,44.27,44.27,0,0,1,.58,25.22,56.92,56.92,0,0,1-22.72,32.51c-10.75,7.61-22.69,9.84-35.52,7.45a51,51,0,0,1-28.22-14.85c-7.74-8.05-12.17-17.6-12.26-28.9-.07-9.53,0-19.07-.05-28.6,0-1.57.47-2.15,2.08-2.11,3.34.1,6.69.14,10,0,2-.09,2.62.56,2.6,2.54-.09,8.6.22,17.22-.1,25.82-.61,16.48,11.46,27.87,24.4,31.55,6.55,1.87,13.14,2.55,19.74.44,10.66-3.42,17.95-10.76,22.8-20.56,7.7-15.56,4.1-29.7-6-42.78a35.34,35.34,0,0,0-17.23-12.42,29.72,29.72,0,0,0-9.23-1.38Z"/><path class="cls-2" d="M132.19,155.62q-18,0-36.09,0c-11.65,0-21.49-4.37-29.72-12.41-9.92-9.71-15.43-21.54-16-35.48-.74-19.54,6.87-35,23.3-45.77a37.85,37.85,0,0,1,20.72-6.42c26.13-.16,52.25-.09,78.37-.15,1.73,0,2.21.65,2.16,2.28-.09,3.27-.13,6.55,0,9.82.1,2.09-.69,2.68-2.72,2.68-25-.06-50,0-75-.08-8.88,0-16.52,2.84-22.69,9.14C65.1,89,62.25,100.73,65,113.84,66.94,123,71.58,130.61,79.44,136a25.86,25.86,0,0,0,14.12,4.89c7.54.16,15.09.11,22.63.12h55.52c2.7,0,2.75.06,2.76,2.76,0,3.06-.1,6.13,0,9.18.08,2-.42,2.75-2.6,2.73C158.67,155.57,145.43,155.62,132.19,155.62Z"/><path class="cls-1" d="M758.33,233q0,28.92,0,57.85c0,1.61-.35,2.3-2.11,2.28q-11.21-.11-22.41,0c-1.69,0-2.18-.57-2.18-2.24q.08-57.84,0-115.69c0-1.87.59-2.47,2.46-2.45,7.25.08,14.51.1,21.77,0,2.07,0,2.48.76,2.48,2.64C758.31,194.59,758.33,213.8,758.33,233Z"/><path class="cls-1" d="M1017.68,233c0,19.28,0,38.56,0,57.84,0,1.84-.62,2.3-2.34,2.29q-11.1-.11-22.2,0c-1.69,0-2.18-.57-2.17-2.24q.06-57.84,0-115.68c0-1.87.57-2.48,2.44-2.46,7.26.09,14.52.1,21.78,0,2.07,0,2.48.75,2.48,2.63C1017.65,194.59,1017.68,213.8,1017.68,233Z"/><path class="cls-5" d="M32.81,28c2.55-1.16,4.35-3.31,6.49-5A93.92,93.92,0,0,1,69.12,7,106.63,106.63,0,0,1,101.39,2.4c23.42,0,46.84,0,70.26-.06,2.23,0,2.81.62,2.67,2.75-.18,2.83,0,5.69,0,8.54,0,2.48-.13,2.56-2.52,2.22a15.12,15.12,0,0,0-2.13-.09c-23.7,0-47.4-.14-71.1.05-12.16.09-24,2.28-35.09,7.51a87.24,87.24,0,0,0-40,39,91.28,91.28,0,0,0-8.1,22.51,88.24,88.24,0,0,0-2,16,102,102,0,0,0,1,18.78A91.31,91.31,0,0,0,19.39,139a87.26,87.26,0,0,0,9.51,18,83.62,83.62,0,0,0,27.32,25.51,76.48,76.48,0,0,0,23.18,8.82,90.7,90.7,0,0,0,18.17,1.84q36.18.08,72.38,0c3.9,0,3.9,0,3.9,4,0,2.28-.12,4.56,0,6.83.13,2-.55,2.55-2.53,2.54-15-.07-30,0-45.06,0-8.11,0-16.23,0-24.34,0-11.89,0-23.69-.9-35.07-4.68A92.44,92.44,0,0,1,44.75,191,98.57,98.57,0,0,1,4.51,134.37a115.61,115.61,0,0,1-3.45-19.2C.68,110.56.12,106,.45,101.38A140.94,140.94,0,0,1,3,82.46a106.19,106.19,0,0,1,8.64-25A97,97,0,0,1,25.1,36.81c1.95-2.26,3.95-4.48,6.1-6.55.41-.39.87-.77.75-1.44Z"/></svg>